<svg id="Layer_1" data-name="Layer 1" xmlns="http://www.w3.org/2000/svg" viewBox="0 0 1366 768"><defs><style>.cls-1{fill:#fff;}</style></defs><path class="cls-1" d="M325.46,242.34a70,70,0,0,0,.42,8h-8.21a13,13,0,0,1-.44-3c-1.12,1.75-3.23,3.76-8.73,3.76-7.49,0-10.64-4.92-10.64-9.74,0-7.08,5.68-10.34,14.78-10.34h4.43v-1.9c0-2.21-.79-4.38-4.78-4.38-3.63,0-4.42,1.55-4.82,3.79H299.3c.46-5.51,3.87-10,13.32-9.93,8.31.06,12.84,3.31,12.84,10.7Zm-8.38-6.11h-3.5c-5.18,0-7.1,1.58-7.1,4.58,0,2.25,1.37,4.14,4.47,4.14,5.46,0,6.13-3.8,6.13-7.9Z"/><path class="cls-1" d="M330.3,227.14c0-2.64,0-5.53-.06-7.83h8.33a38.86,38.86,0,0,1,.33,4c1.05-2,3.57-4.68,9-4.68,6.23,0,10.29,4.22,10.29,12v19.76h-8.6v-18.8c0-3.49-1.17-6-5-6s-5.74,2-5.74,7.51v17.31h-8.6Z"/><path class="cls-1" d="M359.2,219.31H364V210.9h8.6v8.41h6.08v6.47h-6.08V241.1c0,2.36.72,3.28,3.28,3.28a15.66,15.66,0,0,0,2-.1v5.92a19.84,19.84,0,0,1-5.78.59c-6.06,0-8.06-3.24-8.06-8.68V225.78H359.2Z"/><path class="cls-1" d="M389.18,206.57V223c1.37-2,3.88-4.39,8.9-4.39,5.79,0,10.4,3.43,10.4,11.85v19.93h-8.54V231.73c0-4-1.43-6.18-5-6.18-4.78,0-5.72,3.55-5.72,8.34v16.48h-8.6v-43.8Z"/><path class="cls-1" d="M442.12,234.78c0,9.4-5.62,16.31-15.46,16.31-9.63,0-15.25-6.87-15.25-16.14,0-9.59,5.79-16.36,15.65-16.36C436.21,218.59,442.12,225,442.12,234.78Zm-22,.06c0,6,2.57,9.52,6.72,9.52s6.54-3.54,6.54-9.47c0-6.49-2.38-9.57-6.66-9.57C422.74,225.32,420.13,228.28,420.13,234.84Z"/><path class="cls-1" d="M445.08,227.14c0-2.64,0-5.53-.06-7.83h8.32a33.88,33.88,0,0,1,.33,4c1.06-2,3.57-4.68,9-4.68,6.24,0,10.29,4.22,10.29,12v19.76h-8.59v-18.8c0-3.49-1.17-6-5-6s-5.75,2-5.75,7.51v17.31h-8.59Z"/><path class="cls-1" d="M482.79,219.31c3.2,10.72,6,20.28,6.49,23.15h.06c.68-3.13,2.5-10.09,6.2-23.15h8.56l-10.43,31.95c-3,8.94-5.45,11.6-12.91,11.6-.76,0-2.54-.06-4-.23v-6.91a21.42,21.42,0,0,0,2.22.13c3.16,0,4.75-1.1,5.91-4.53l-11.3-32Z"/><path class="cls-1" d="M506.1,216.77h11.14c9.22,0,15.6,6.43,15.6,16.51s-6.24,17.09-15.65,17.09H506.1Zm2.6,31.2h8.11c8.88,0,13.25-6.24,13.25-14.55,0-7.39-3.94-14.25-13.25-14.25H508.7Z"/><path class="cls-1" d="M557.56,233.86H540.42V248h18.77l-.38,2.4h-21v-33.6h20.6v2.4h-18v12.29h17.14Z"/><path class="cls-1" d="M573.16,250.37l-12.48-33.6h2.78L570,234.34c1.87,5.08,4,10.7,4.71,13.53h.09c.72-2.49,3-8.4,4.9-13.34l6.77-17.76h2.73l-13,33.6Z"/></svg>